<svg width="23" height="22" viewBox="0 0 23 22" fill="none" xmlns="http://www.w3.org/2000/svg">
<path d="M20.6719 8.41249C20.6142 8.24267 20.5081 8.09346 20.3666 7.98327C20.2251 7.87309 20.0545 7.80674 19.8757 7.79244L14.6466 7.37693L12.3838 2.36791C12.3117 2.20658 12.1945 2.06956 12.0463 1.97337C11.898 1.87719 11.7252 1.82595 11.5485 1.82586C11.3718 1.82576 11.1988 1.8768 11.0505 1.97282C10.9022 2.06885 10.7848 2.20574 10.7126 2.367L8.44974 7.37693L3.22059 7.79244C3.0449 7.80635 2.87694 7.87059 2.7368 7.97747C2.59666 8.08435 2.49028 8.22933 2.43039 8.39508C2.37049 8.56084 2.35962 8.74034 2.39906 8.91211C2.43851 9.08388 2.52661 9.24064 2.65282 9.36366L6.51713 13.1307L5.15045 19.0487C5.10895 19.2279 5.12225 19.4153 5.18863 19.5868C5.255 19.7583 5.37138 19.9059 5.52267 20.0104C5.67395 20.1149 5.85316 20.1715 6.03703 20.1729C6.22091 20.1743 6.40096 20.1205 6.55382 20.0182L11.5482 16.6887L16.5425 20.0182C16.6987 20.122 16.883 20.1754 17.0705 20.1713C17.258 20.1672 17.4397 20.1057 17.5913 19.9953C17.7428 19.8848 17.8569 19.7305 17.9181 19.5533C17.9794 19.376 17.9849 19.1843 17.9339 19.0038L16.2563 13.1335L20.4169 9.38934C20.6893 9.14352 20.7893 8.76012 20.6719 8.41249Z" fill="#F3CD03"/>
</svg>
